<svg id="Flat" height="512" viewBox="0 0 512 512" width="512" xmlns="http://www.w3.org/2000/svg"><path d="m320 24h-128l-124.14 84.938a64 64 0 0 0 -27.86 52.819v326.243h432v-326.243a64 64 0 0 0 -27.86-52.819z" fill="#e1e3e6"/><path d="m320 24-64 56-64-56z" fill="#d0d2d4"/><path d="m256 80-28.8 24-19.2 16-67.12-61.02 51.12-34.98z" fill="#e9eef2"/><path d="m284.8 104-12.8 32h-32l-12.8-32 28.8-24z" fill="#d13330"/><path d="m296 176v248l-40 32-40-32v-248l24-40h32z" fill="#eb423f"/><g fill="#e9eef2"><path d="m40 440h80v48h-80z"/><path d="m371.12 58.98-67.12 61.02-19.2-16-28.8-24 64-56z"/><path d="m392 440h80v48h-80z" transform="matrix(-1 0 0 -1 864 928)"/></g><path d="m392 176a8 8 0 0 0 -8 8v304h16v-304a8 8 0 0 0 -8-8z" fill="#d0d2d4"/><path d="m120 176a8 8 0 0 0 -8 8v304h16v-304a8 8 0 0 0 -8-8z" fill="#d0d2d4"/></svg>